<svg width="32" height="32" viewBox="0 0 32 32" xmlns="http://www.w3.org/2000/svg">
  <defs>
    <linearGradient id="blueToPurple" x1="0%" y1="0%" x2="100%" y2="0%">
      <stop offset="0%" style="stop-color:#3B82F6;stop-opacity:1" />
      <stop offset="100%" style="stop-color:#9333EA;stop-opacity:1" />
    </linearGradient>
  </defs>
  
  <!-- Rounded rectangle background -->
  <rect width="32" height="32" rx="6" ry="6" fill="url(#blueToPurple)" />
  
  <!-- Exact Lucide React Zap icon -->
<g transform="translate(16, 16)" stroke="white" stroke-width="2" stroke-linecap="round" stroke-linejoin="round" fill="none">
    <path d="M4 14a1 1 0 0 1-.78-1.63l9.9-10.2a.5.5 0 0 1 .86.46l-1.92 6.02A1 1 0 0 0 13 10h7a1 1 0 0 1 .78 1.63l-9.9 10.2a.5.5 0 0 1-.86-.46l1.92-6.02A1 1 0 0 0 11 14z" transform="scale(0.83) translate(-12, -12)"/>
  </g>
</svg>